/* XPM */
static char * main_xpm[] = {
"32 32 496 2",
"  	c None",
". 	c #757472",
"+ 	c #7C7B77",
"@ 	c #83817D",
"# 	c #8A8985",
"$ 	c #898783",
"% 	c #8B8983",
"& 	c #8D8A85",
"* 	c #8E8B86",
"= 	c #817F79",
"- 	c #878680",
"; 	c #8C8A85",
"> 	c #8A867F",
", 	c #86837B",
"' 	c #928E89",
") 	c #ABA8A0",
"! 	c #C5C1BB",
"~ 	c #D3D0C7",
"{ 	c #C2BAAA",
"] 	c #B88764",
"^ 	c #B8693E",
"/ 	c #BD5F30",
"( 	c #C55827",
"_ 	c #CE5824",
": 	c #D95E27",
"< 	c #DB642B",
"[ 	c #775438",
"} 	c #C3C3C3",
"| 	c #E9E9E6",
"1 	c #E3E0DA",
"2 	c #C3AD99",
"3 	c #B86A41",
"4 	c #BF5C30",
"5 	c #CA5425",
"6 	c #D85428",
"7 	c #E65B31",
"8 	c #F1623A",
"9 	c #F46E49",
"0 	c #F6805B",
"a 	c #F88D68",
"b 	c #F6926B",
"c 	c #F39166",
"d 	c #E77E51",
"e 	c #E2753F",
"f 	c #784927",
"g 	c #CBCBCB",
"h 	c #EEEEEE",
"i 	c #CDB6A1",
"j 	c #EC7250",
"k 	c #FA9E87",
"l 	c #FDAF9C",
"m 	c #FEB9A8",
"n 	c #FDB9A8",
"o 	c #FDB19D",
"p 	c #F9A892",
"q 	c #F6A084",
"r 	c #F49979",
"s 	c #F2936E",
"t 	c #F29165",
"u 	c #E48259",
"v 	c #DC794D",
"w 	c #D9713E",
"x 	c #7B4D29",
"y 	c #C8C7C7",
"z 	c #CF9F82",
"A 	c #F8B09C",
"B 	c #FED0C5",
"C 	c #FEC9BC",
"D 	c #FDC1B2",
"E 	c #FDB9A7",
"F 	c #FBB19C",
"G 	c #F6A68C",
"H 	c #EE9A7F",
"I 	c #EA9272",
"J 	c #E68C6A",
"K 	c #E38761",
"L 	c #DD8056",
"M 	c #D97B4E",
"N 	c #D37240",
"O 	c #7B4E2B",
"P 	c #4C4C4C",
"Q 	c #666666",
"R 	c #C5C5C5",
"S 	c #CA997C",
"T 	c #F9AD98",
"U 	c #FEC8BB",
"V 	c #FDC0B0",
"W 	c #FCB9A6",
"X 	c #F9B29B",
"Y 	c #F4A78C",
"Z 	c #ED9C7F",
"` 	c #E79373",
" .	c #E28C69",
"..	c #DE865F",
"+.	c #DA8257",
"@.	c #D37A4C",
"#.	c #CF7442",
"$.	c #784A27",
"%.	c #626262",
"&.	c #BDBDBD",
"*.	c #BABABA",
"=.	c #636363",
"-.	c #C0C0C0",
";.	c #C79778",
">.	c #F9A993",
",.	c #FDC2B1",
"'.	c #FCBDA7",
").	c #F8B59D",
"!.	c #F4A88B",
"~.	c #EC9F80",
"{.	c #E79876",
"].	c #E2906C",
"^.	c #DB8860",
"/.	c #D68054",
"(.	c #D07B4B",
"_.	c #CA7342",
":.	c #774A27",
"<.	c #787878",
"[.	c #BBBBBB",
"}.	c #B5B5B5",
"|.	c #AAAAAA",
"1.	c #404040",
"2.	c #EEEDED",
"3.	c #C49878",
"4.	c #F8A48D",
"5.	c #FECABC",
"6.	c #FCC4B2",
"7.	c #F9BEA9",
"8.	c #F8B79A",
"9.	c #F1AA8B",
"0.	c #E8A081",
"a.	c #E39977",
"b.	c #CC8E6F",
"c.	c #8D7B72",
"d.	c #946F5B",
"e.	c #CC794A",
"f.	c #C77443",
"g.	c #784E2A",
"h.	c #393939",
"i.	c #585858",
"j.	c #8D8D8D",
"k.	c #B7B7B7",
"l.	c #B1B1B1",
"m.	c #8E8E8E",
"n.	c #A5A5A3",
"o.	c #CFCFCF",
"p.	c #C39A7B",
"q.	c #F78B6E",
"r.	c #FED1C5",
"s.	c #FDCCBC",
"t.	c #DBBDB2",
"u.	c #B8AEAA",
"v.	c #CB9F8A",
"w.	c #EA956E",
"x.	c #E2865C",
"y.	c #DB7D4E",
"z.	c #7F6456",
"A.	c #757575",
"B.	c #6B6A6A",
"C.	c #A66D4A",
"D.	c #C77947",
"E.	c #79502A",
"F.	c #868686",
"G.	c #979797",
"H.	c #B9B9B9",
"I.	c #B3B3B3",
"J.	c #A3A3A3",
"K.	c #5F5F5F",
"L.	c #737372",
"M.	c #D2D2D2",
"N.	c #C7A084",
"O.	c #F0430F",
"P.	c #FB693B",
"Q.	c #E97950",
"R.	c #524C4A",
"S.	c #383838",
"T.	c #3A2318",
"U.	c #CE490D",
"V.	c #C8490B",
"W.	c #C54B0D",
"X.	c #3F2E24",
"Y.	c #2B2B2B",
"Z.	c #363636",
"`.	c #83614B",
" +	c #D0844D",
".+	c #79512C",
"++	c #AFAFAF",
"@+	c #767676",
"#+	c #4E4E4E",
"$+	c #484848",
"%+	c #CAAD93",
"&+	c #ED4812",
"*+	c #F8622E",
"=+	c #AC4B23",
"-+	c #313131",
";+	c #252525",
">+	c #161616",
",+	c #9B3707",
"'+	c #C34809",
")+	c #BB4809",
"!+	c #31231C",
"~+	c #1C1C1C",
"{+	c #0F0F0F",
"]+	c #71482D",
"^+	c #E2944D",
"/+	c #77502A",
"(+	c #474747",
"_+	c #3A3A3A",
":+	c #424242",
"<+	c #BFBFBF",
"[+	c #D1D1D1",
"}+	c #84827E",
"|+	c #C4A68A",
"1+	c #EA4D14",
"2+	c #F7682F",
"3+	c #A1461E",
"4+	c #232323",
"5+	c #171717",
"6+	c #0E0A08",
"7+	c #AD4008",
"8+	c #BE4A0A",
"9+	c #BA4A0B",
"0+	c #4B250F",
"a+	c #0E0E0E",
"b+	c #010101",
"c+	c #763D14",
"d+	c #E59A4C",
"e+	c #77512C",
"f+	c #828282",
"g+	c #787675",
"h+	c #BCBCBC",
"i+	c #B7A18D",
"j+	c #E75116",
"k+	c #F56E30",
"l+	c #E05B18",
"m+	c #271810",
"n+	c #090909",
"o+	c #1F0C01",
"p+	c #BA4B0B",
"q+	c #B64B0C",
"r+	c #8B3C0A",
"s+	c #311705",
"t+	c #64350B",
"u+	c #AF5A1B",
"v+	c #D3813B",
"w+	c #754E29",
"x+	c #434343",
"y+	c #9F9F9F",
"z+	c #797671",
"A+	c #C1C1C1",
"B+	c #B2A192",
"C+	c #E25417",
"D+	c #F06F31",
"E+	c #E86217",
"F+	c #83360F",
"G+	c #351504",
"H+	c #8F3607",
"I+	c #B54B0C",
"J+	c #B14C0C",
"K+	c #AD4D0D",
"L+	c #AD5113",
"M+	c #B35F1D",
"N+	c #AC5C1D",
"O+	c #B57039",
"P+	c #734C25",
"Q+	c #7D7D7D",
"R+	c #5E5E5E",
"S+	c #918E88",
"T+	c #B5A89A",
"U+	c #DE5717",
"V+	c #EC712C",
"W+	c #DA5A15",
"X+	c #CE5312",
"Y+	c #C55213",
"Z+	c #A84C0E",
"`+	c #A95414",
" @	c #A35115",
".@	c #A4581C",
"+@	c #A9622C",
"@@	c #734923",
"#@	c #ABABAB",
"$@	c #8B8985",
"%@	c #B2ABA4",
"&@	c #DA5919",
"*@	c #E97125",
"=@	c #D15917",
"-@	c #C85615",
";@	c #C05414",
">@	c #A44D0E",
",@	c #A45215",
"'@	c #9E4E13",
")@	c #A75C22",
"!@	c #B66A24",
"~@	c #714721",
"{@	c #3D3D3D",
"]@	c #989898",
"^@	c #898884",
"/@	c #B8B8B8",
"(@	c #B5B1AA",
"_@	c #D55B19",
":@	c #E06A1E",
"<@	c #CA5917",
"[@	c #C35917",
"}@	c #BE5818",
"|@	c #AC4C0D",
"1@	c #A44C0F",
"2@	c #A04C0F",
"3@	c #9C4D13",
"4@	c #994F15",
"5@	c #A35E23",
"6@	c #D06E14",
"7@	c #6D441E",
"8@	c #505050",
"9@	c #727272",
"0@	c #868480",
"a@	c #B6B1A7",
"b@	c #D15D1B",
"c@	c #CE641D",
"d@	c #381B08",
"e@	c #A54B13",
"f@	c #BD5B1B",
"g@	c #AD4F11",
"h@	c #A84D0E",
"i@	c #9F4C0F",
"j@	c #9B4B10",
"k@	c #964A11",
"l@	c #954F17",
"m@	c #A45F20",
"n@	c #B46824",
"o@	c #69401B",
"p@	c #5C5C5C",
"q@	c #837F75",
"r@	c #B4AC9D",
"s@	c #B1A896",
"t@	c #CC5E1C",
"u@	c #49260C",
"v@	c #150D07",
"w@	c #AE5718",
"x@	c #BB5F1E",
"y@	c #AB5415",
"z@	c #9A4A10",
"A@	c #914911",
"B@	c #95521B",
"C@	c #AC6623",
"D@	c #7A4511",
"E@	c #68401B",
"F@	c #5D5D5D",
"G@	c #A1A1A1",
"H@	c #7E7769",
"I@	c #A79E8C",
"J@	c #A39C8E",
"K@	c #C7601E",
"L@	c #AB5D20",
"M@	c #4A260D",
"N@	c #502C11",
"O@	c #C86A1F",
"P@	c #AE591B",
"Q@	c #934B13",
"R@	c #9A5922",
"S@	c #C16E1D",
"T@	c #603914",
"U@	c #B46012",
"V@	c #653E1C",
"W@	c #565656",
"X@	c #323232",
"Y@	c #7A7263",
"Z@	c #979695",
"`@	c #979696",
" #	c #C36220",
".#	c #DB7A26",
"+#	c #A4531B",
"@#	c #20150D",
"##	c #81481A",
"$#	c #AE6021",
"%#	c #A05317",
"&#	c #974C13",
"*#	c #97511A",
"=#	c #B06824",
"-#	c #C77421",
";#	c #754517",
">#	c #7E4713",
",#	c #D67011",
"'#	c #613C1D",
")#	c #4B4B4B",
"!#	c #787062",
"~#	c #BF6322",
"{#	c #C8651C",
"]#	c #6B3A15",
"^#	c #221912",
"/#	c #794115",
"(#	c #974D14",
"_#	c #99521B",
":#	c #A16029",
"<#	c #B96E25",
"[#	c #62401D",
"}#	c #6A3E15",
"|#	c #D57012",
"1#	c #5D3B1D",
"2#	c #333333",
"3#	c #A9A9A9",
"4#	c #766E60",
"5#	c #BA6421",
"6#	c #AB591B",
"7#	c #5A3314",
"8#	c #241C16",
"9#	c #442913",
"0#	c #613817",
"a#	c #5F3F21",
"b#	c #3E2E1E",
"c#	c #6D461D",
"d#	c #D57011",
"e#	c #D36F13",
"f#	c #58371E",
"g#	c #756D5F",
"h#	c #B66322",
"i#	c #A45316",
"j#	c #9F4F14",
"k#	c #9A4B11",
"l#	c #954A11",
"m#	c #623511",
"n#	c #422A16",
"o#	c #38291D",
"p#	c #523822",
"q#	c #8C5927",
"r#	c #B66E24",
"s#	c #D36E13",
"t#	c #D26D13",
"u#	c #55341D",
"v#	c #746C5F",
"w#	c #AD6021",
"x#	c #9A4B10",
"y#	c #964B12",
"z#	c #914912",
"A#	c #8D4812",
"B#	c #884513",
"C#	c #874A1A",
"D#	c #955726",
"E#	c #9A6330",
"F#	c #C37123",
"G#	c #CE6E18",
"H#	c #D26D14",
"I#	c #55351C",
"J#	c #736C5E",
"K#	c #AA6125",
"L#	c #9B4E13",
"M#	c #974F16",
"N#	c #924B14",
"O#	c #914F1A",
"P#	c #8B4A19",
"Q#	c #874B1A",
"R#	c #865022",
"S#	c #96612E",
"T#	c #C28131",
"U#	c #D08F2D",
"V#	c #C86F1E",
"W#	c #B8651E",
"X#	c #4E321D",
"Y#	c #6E685A",
"Z#	c #A86126",
"`#	c #974D15",
" $	c #924C15",
".$	c #975721",
"+$	c #C67F2E",
"@$	c #BA7937",
"#$	c #CAA469",
"$$	c #C7A873",
"%$	c #BF9657",
"&$	c #A0723F",
"*$	c #66462A",
"=$	c #543821",
"-$	c #553922",
";$	c #68584B",
">$	c #645E52",
",$	c #989795",
"'$	c #A56227",
")$	c #9B581F",
"!$	c #965926",
"~$	c #C99650",
"{$	c #D6B57E",
"]$	c #CBA97C",
"^$	c #83623D",
"/$	c #644A2F",
"($	c #5F482F",
"_$	c #705A43",
":$	c #716C61",
"<$	c #8A8478",
"[$	c #9F5F28",
"}$	c #BD813E",
"|$	c #926534",
"1$	c #6E502F",
"2$	c #6C5032",
"3$	c #6F573D",
"4$	c #989690",
"5$	c #62452A",
"6$	c #6C5439",
"7$	c #938E83",
"                                                                ",
"                      . + @ # $ $ % & * =                       ",
"        . - ; > , ' ) ! ~ { ] ^ / ( _ : < [                     ",
"        } | 1 2 3 4 5 6 7 8 9 0 a b c d e f                     ",
"        g h i j k l m n o p q r s t u v w x                     ",
"        y h z A B C D E F G H I J K L M N O               P Q   ",
"        R h S T B U V W X Y Z `  ...+.@.#.$.            %.&.*.=.",
"        -.h ;.>.B U ,.'.).!.~.{.].^./.(._.:.          <.[.}.|.1.",
"        &.2.3.4.B 5.6.7.8.9.0.a.b.c.d.e.f.g.    h.i.j.k.l.m.h.  ",
"        n.o.p.q.r.s.t.u.v.w.x.y.z.A.B.C.D.E.F.G.[.H.I.J.K.      ",
"        L.M.N.O.P.Q.R.S.T.U.V.W.X.Y.Z.`. +.+-.*.++@+#+          ",
"      $+M.g %+&+*+=+-+;+>+,+'+)+!+~+{+]+^+/+(+_+                ",
"    :+<+[+}+|+1+2+3+4+5+6+7+8+9+0+a+b+c+d+e+                    ",
"    f+g g+h+i+j+k+l+m+n+o+8+p+q+r+s+t+u+v+w+                    ",
"  x+<+y+z+A+B+C+D+E+F+G+H+p+I+J+K+L+M+N+O+P+                    ",
"  Q+<+R+S+-.T+U+V+W+X+Y+p+I+J+K+Z+`+ @.@+@@@                    ",
"  #@[.h.$@h+%@&@*@=@-@;@I+J+K+Z+>@,@'@)@!@~@                    ",
"{@I.]@  ^@/@(@_@:@<@[@}@J+|@Z+1@2@3@4@5@6@7@                    ",
"8@I.9@  0@/@a@b@c@d@e@f@g@h@1@i@j@k@l@m@n@o@                    ",
"p@I.<.  q@r@s@t@u@v@w@x@y@1@i@z@k@A@B@C@D@E@                    ",
"F@I.G@  H@I@J@K@L@M@N@O@P@i@z@k@Q@R@S@T@U@V@                    ",
"W@I.&.X@Y@Z@`@ #.#+#@###$#%#&#*#=#-#;#>#,#'#                    ",
"8@I.<+)#!#G.G.~#{#u+]#^#/#(#_#:#<#[#}#,#|#1#                    ",
"2#3#++  4#G.G.5#P@6#%#7#8#9#0#a#b#c#d#|#e#f#                    ",
"        g#G.G.h#i#j#k#l#m#n#o#p#q#r#|#s#t#u#                    ",
"        v#G.G.w#j#x#y#z#A#B#C#D#E#F#G#t#H#I#                    ",
"        J#G.G.K#L#M#N#O#P#Q#R#S#T#U#V#W#f X#                    ",
"        Y#G.G.Z#`# $.$+$@$#$$$%$&$*$=$-$;$                      ",
"        >$,$G.'$)$!$~${$]$^$/$($_$                              ",
"          :$<$[$}$|$1$2$3$                                      ",
"            4$5$6$7$                                            ",
"                                                                "};
